<svg height="96" viewBox="0 0 108 96" width="108" xmlns="http://www.w3.org/2000/svg">
  <g fill="#61dafb">
    <path d="m107.928604 48c0-7.1395881-8.940961-13.9057208-22.6489701-18.1016018 3.1633867-13.9716247 1.757437-25.08741422-4.4375286-28.64622429-1.4279177-.83478261-3.0974829-1.23020595-4.9208238-1.23020595v4.89885584c1.0105263 0 1.8233409.19771167 2.5043478.57116705 2.987643 1.71350114 4.2837529 8.23798625 3.2732265 16.62974825-.2416476 2.0649886-.6370709 4.239817-1.1203661 6.4585813-4.3057208-1.0544623-9.006865-1.8672769-13.9496567-2.394508-2.9656751-4.0640733-6.04119-7.7546911-9.1386728-10.9839817 7.161556-6.65629294 13.8837528-10.30297486 18.4530892-10.30297486v-4.89885584c-6.0411899 0-13.9496567 4.30572082-21.9459954 11.7748284-7.9963387-7.42517165-15.9048055-11.68695655-21.9459954-11.68695655v4.89885584c4.5473684 0 11.2915332 3.62471396 18.4530892 10.23707091-3.0755148 3.2292906-6.1510297 6.8979405-9.0727689 10.9620138-4.9647597.5272311-9.6659038 1.3400457-13.9716247 2.4164759-.5052631-2.1967963-.8787185-4.3276888-1.1423341-6.3707094-1.0324942-8.391762.2416476-14.91624709 3.2073227-16.6517162.6590389-.39542334 1.5157895-.57116705 2.5263158-.57116705v-4.89885583c-1.8453089 0-3.5148742.39542334-4.9647597 1.23020595-6.1729978 3.55881007-7.5569794 14.65263153-4.3716248 28.58032033-13.66407318 4.217849-22.56109836 10.9620138-22.56109836 18.0796339 0 7.1395881 8.9409611 13.9057208 22.64897026 18.1016018-3.1633867 13.9716247-1.7574371 25.0874142 4.4375286 28.6462243 1.4279176.8347826 3.0974828 1.2302059 4.9427918 1.2302059 6.0411899 0 13.9496567-4.3057208 21.9459954-11.7748283 7.9963387 7.4251716 15.9048055 11.6869565 21.9459954 11.6869565 1.8453089 0 3.5148742-.3954234 4.9647597-1.230206 6.1729977-3.55881 7.5569794-14.6526315 4.3716247-28.5803203 13.6201373-4.195881 22.5171624-10.9620138 22.5171624-18.0796339zm-28.6022882-14.6526316c-.8128147 2.8338673-1.823341 5.7556064-2.9656751 8.6773456-.9006865-1.7574371-1.8453089-3.5148742-2.8778032-5.2723113-1.0105263-1.757437-2.0869565-3.4709382-3.1633867-5.1405034 3.1194508.4613272 6.1290618 1.0324943 9.006865 1.7354691zm-10.0613272 23.395881c-1.7135012 2.9656751-3.4709383 5.7775744-5.2942792 8.391762-3.2732266.2855836-6.590389.4393593-9.9295195.4393593-3.3171624 0-6.6343249-.1537757-9.8855835-.4173913-1.823341-2.6141876-3.602746-5.404119-5.3162471-8.3478261-1.6695652-2.8778032-3.1853547-5.7995423-4.5693364-8.7432494 1.3620137-2.9437071 2.8997712-5.8874142 4.5473684-8.7652174 1.7135011-2.9656751 3.4709382-5.7775744 5.2942792-8.391762 3.2732265-.2855835 6.590389-.4393593 9.9295194-.4393593 3.3171625 0 6.634325.1537758 9.8855836.4173913 1.8233409 2.6141877 3.602746 5.404119 5.3162471 8.3478261 1.6695652 2.8778032 3.1853547 5.7995423 4.5693364 8.7432494-1.3839817 2.9437071-2.8997712 5.8874142-4.5473684 8.7652174zm7.0956521-2.8558352c1.1862701 2.9437071 2.1967964 5.8874142 3.031579 8.7432494-2.8778032.7029748-5.9093822 1.2961099-9.0508009 1.7574371 1.0764302-1.6915332 2.1528604-3.4270023 3.1633867-5.2064073 1.0105263-1.7574371 1.9551487-3.5368421 2.8558352-5.2942792zm-22.2755148 23.4398169c-2.0430206-2.1089245-4.0860412-4.4594965-6.1070939-7.0297483 1.9771167.0878719 3.9981694.1537758 6.04119.1537758 2.0649885 0 4.1080091-.0439359 6.1070938-.1537758-1.9771167 2.5702518-4.0201373 4.9208238-6.0411899 7.0297483zm-16.3441648-12.9391304c-3.1194508-.4613272-6.1290618-1.0324943-9.006865-1.7354691.8128147-2.8338673 1.823341-5.7556064 2.9656751-8.6773456.9006865 1.7574371 1.8453089 3.5148742 2.8778032 5.2723113 1.0324942 1.757437 2.0869565 3.4709382 3.1633867 5.1405034zm16.2343249-45.7153318c2.0430206 2.1089245 4.0860412 4.4594965 6.1070939 7.0297483-1.9771167-.0878719-3.9981694-.1537758-6.04119-.1537758-2.0649885 0-4.1080091.0439359-6.1070938.1537758 1.9771167-2.5702518 4.0201373-4.9208238 6.0411899-7.0297483zm-16.2562929 12.9391304c-1.0764302 1.6915332-2.1528604 3.4270023-3.1633867 5.2064073-1.0105263 1.7574371-1.9551487 3.5148742-2.8558352 5.2723112-1.1862701-2.943707-2.1967964-5.8874141-3.031579-8.7432494 2.8778032-.6810068 5.9093822-1.2741419 9.0508009-1.7354691zm-19.8810068 27.5038902c-7.7766591-3.3171625-12.80732268-7.6668192-12.80732268-11.1157895s5.03066358-7.820595 12.80732268-11.1157895c1.8892448-.8128146 3.9542334-1.5377574 6.0851258-2.2187643 1.2521739 4.3057208 2.8997712 8.7871854 4.9427918 13.3784897-2.0210526 4.5693364-3.6466819 9.028833-4.8768879 13.3125858-2.1748284-.6810068-4.2398169-1.4279176-6.1510297-2.2407322zm11.8187643 31.3922197c-2.987643-1.7135012-4.2837529-8.2379863-3.2732266-16.6297483.2416476-2.0649886.637071-4.239817 1.1203662-6.4585813 4.3057208 1.0544623 9.0068649 1.8672769 13.9496567 2.394508 2.9656751 4.0640733 6.0411899 7.7546911 9.1386728 10.9839817-7.1615561 6.6562929-13.8837529 10.3029749-18.4530893 10.3029749-.9885583-.021968-1.8233409-.2196797-2.4823798-.593135zm52.1080091-16.7395881c1.0324943 8.391762-.2416476 14.9162471-3.2073226 16.6517162-.6590389.3954233-1.5157895.571167-2.5263158.571167-4.5473684 0-11.2915332-3.6247139-18.4530893-10.2370709 3.0755149-3.2292906 6.1510298-6.8979405 9.0727689-10.9620137 4.9647597-.5272311 9.6659039-1.3400458 13.9716247-2.416476.5052632 2.2187643.9006865 4.3496568 1.1423341 6.3926774zm8.4576659-14.6526316c-1.8892448.8128146-3.9542334 1.5377574-6.0851258 2.2187643-1.2521739-4.3057208-2.8997712-8.7871854-4.9427918-13.3784897 2.0210526-4.5693364 3.6466819-9.028833 4.8768879-13.3125858 2.1748284.6810068 4.2398169 1.4279176 6.1729977 2.2407322 7.776659 3.3171625 12.8073224 7.6668192 12.8073224 11.1157895-.021968 3.4489703-5.0526313 7.820595-12.8292904 11.1157895z" />
    <circle cx="54.019222" cy="48" r="10.039359" />
  </g>
</svg>
