<svg height="96" viewBox="0 0 108 96" width="108" xmlns="http://www.w3.org/2000/svg">
  <g fill="none" fill-rule="evenodd">
    <g fill-rule="nonzero">
      <path d="m72.4528457.6036624c2.6799233-.7392252 5.7187472-.99024553 8.2507718.36368299 2.4196216 1.31044468 3.8591683 3.85820213 4.6657088 6.40793613 1.3153119 4.26339238 1.3231998 8.81140628.9051397 13.21710948-.331293 3.3363961-.976131 6.6372145-1.8142232 9.8826899 4.4054072 1.1878993 8.7279913 2.7533174 12.758722 4.9077438 3.1709472 1.7334238 6.2472382 3.8206479 8.5031852 6.6886045 1.475043 1.8777111 2.532025 4.2614159 2.224396 6.6965107-.315517 2.6367016-1.897047 4.919603-3.717186 6.7656895-2.735139 2.7414581-6.1052555 4.7555503-9.5779154 6.4178188-3.2044704 1.5061219-6.5489515 2.7058805-9.958508 3.6506656 1.3153118 4.9433215 2.1257964 10.0566253 2.0074774 15.1837648-.1143749 3.6131114-.642866 7.3309793-2.3939858 10.540877-1.1102258 2.0516464-2.9540287 3.7929764-5.2573034 4.3582663-3.2636299.8242163-6.6652984-.0889442-9.6903185-1.3559051-5.7680467-2.5161328-10.7196929-6.5660592-15.1586239-10.9697858-2.6503435 2.6821621-5.5412688 5.1310926-8.658972 7.2538944-3.4174444 2.2848779-7.142518 4.2554863-11.2008564 5.0678434-2.5694923.4941345-5.4229499.4387914-7.690729-1.0119875-2.2815829-1.4665911-3.5791469-4.0242313-4.3068082-6.5640826-1.1043098-3.9748179-1.1003658-8.1690314-.7000535-12.2466293.3490408-3.383833 1.0214866-6.7301118 1.8970465-10.0151179-3.6422504-.9665271-7.2075934-2.2493003-10.5994021-3.8997095-3.51407149-1.7433065-6.91376807-3.8720379-9.59566329-6.7755722-1.80239134-1.9725849-3.31292938-4.4491869-3.34448109-7.2005278-.0216918-2.5596167 1.29953599-4.9136734 2.94811276-6.7834784 2.50047289-2.8086604 5.73057904-4.8524007 9.06520022-6.5304814 3.6935219-1.8362038 7.6138216-3.1822262 11.5913089-4.2515332-1.299536-4.8998377-2.1849558-9.9459391-2.1790399-15.0295948.0394396-3.666478.4713037-7.46933704 2.2381993-10.74248394 1.08459-2.03385758 2.9461408-3.70996178 5.2257517-4.22979127 3.4450522-.81235711 6.9985633.21544264 10.1616221 1.57925384 5.6674756 2.549734 10.5934861 6.49095073 15.0048093 10.82352197 2.7489426-2.7473878 5.6990274-5.30305139 8.9034978-7.50689124 2.9283929-1.98642067 6.0737038-3.72775063 9.4931202-4.69230116zm1.1693852 1.73540035c-3.4312483.84398171-6.5686713 2.57938206-9.4793164 4.54406081-3.135451 2.13861409-6.0106004 4.64288774-8.6984116 7.31912014 3.7585973 3.9945832 7.1918175 8.2896003 10.3193806 12.7961069.2563577.4901814.8854199.3182226 1.3350317.4091433 5.2001159.5020407 10.3765681 1.3124212 15.4524492 2.5694994 1.3093959-5.0797026 2.1534041-10.3234579 1.9640938-15.5830254-.1242348-2.703904-.4989113-5.45129177-1.5973052-7.94765923-.7276613-1.64250306-1.8812706-3.21780383-3.575203-3.94516981-1.8102792-.76294366-3.8512804-.59691447-5.7207191-.16207611zm-46.1266257.80840403c-1.6130811 1.13057972-2.5300526 2.98061927-3.1098152 4.81484652-.9465513 3.097235-1.0806461 6.3782881-.9366914 9.5921388.2366378 4.1843309.9524672 8.3469199 2.1041046 12.3731278 5.407174-1.3796236 10.9661906-2.0753649 16.4975995-2.6742559 3.2596859-4.5638262 6.7323458-8.9912713 10.6230658-13.0392211-3.3365931-3.3008184-6.9906754-6.31306228-11.0430979-8.69479055-2.6187918-1.5041454-5.4190059-2.80273085-8.4203622-3.29291227-1.9246542-.30043377-4.0583385-.21741918-5.7148032.9210667zm17.1187738 23.93982802c6.2689301-.4091434 12.5634959-.4308853 18.832426.0138357-2.9027572-4.0024894-5.9691889-7.8962692-9.3905773-11.4698498-3.4292763 3.5735806-6.5450075 7.4396889-9.4418487 11.4560141zm-.9859909 2.0496699c-.2070581.0454603-.5028553-.0059297-.6093424.2292784-4.0327027 5.9236843-7.6374854 12.1497789-10.705889 18.630847 2.2598911 4.9136734 4.9555902 9.6178338 7.7991879 14.2132846 1.0628982 1.5515823 1.9838137 3.2138507 3.1492549 4.688348 6.9492638.4882049 13.9379672.4862284 20.8911749.0197654.3411529-.0494134.7947087.0316246.9662711-.3538003 3.9676273-5.9454262 7.5171945-12.1715208 10.6289818-18.609105-3.1551709-6.5067631-6.815169-12.7625058-10.8577317-18.7533924-7.0695546-.6107502-14.1884089-.5751725-21.2619075-.0652257zm-17.5802175 2.6841385c1.3843312 4.7456677 3.1571428 9.3727431 5.1784241 13.8812263 2.7548586-5.6351098 5.9041135-11.0725658 9.3787454-16.2906261-4.8944588.5040172-9.7711697 1.2511486-14.5571695 2.4093998zm41.3623177-2.4074232c3.4430802 5.2338725 6.6179709 10.6495866 9.412269 16.2609779 2.0114214-4.4847646 3.8118408-9.0723093 5.1942-13.792282-4.7978316-1.197782-9.6942624-1.9449134-14.606469-2.4686959zm-57.1500038 8.4398171c-2.36637813 1.4231074-4.6420451 3.093282-6.36752915 5.2753799-1.11416971 1.4270604-1.99958952 3.1683904-1.91676629 5.0283126.11043098 2.0595526 1.25418041 3.8937798 2.57343622 5.4097845 2.16917995 2.4449775 4.92206651 4.2871109 7.77355212 5.8386932 3.7112697 1.9824676 7.6808691 3.4490587 11.7411795 4.5341781 1.5835014-5.4671041 3.6974659-10.7602728 6.0401802-15.9407788-2.3486303-5.0816791-4.4014633-10.3096221-5.9691888-15.6877819-4.8195235 1.2847496-9.5660836 2.9984081-13.8748638 5.5422124zm73.6633792-5.4789632c-1.5578656 5.3425821-3.6284465 10.5230882-5.9810207 15.5612835 2.4314535 5.1014445 4.5927455 10.3451998 6.2097706 15.7648669 3.8394485-1.0673305 7.6000178-2.4509071 11.147613-4.2752517 2.9658606-1.5555353 5.8449544-3.4016218 8.1147054-5.8960127 1.376443-1.5397231 2.56752-3.435223 2.612875-5.5619779.00986-1.9804911-1.053038-3.773211-2.303274-5.231896-2.096217-2.4014937-4.7978319-4.1803779-7.5783263-5.6845233-3.8650842-2.0516464-8.006246-3.5360264-12.222343-4.6764888zm-57.9407685 32.0436337c4.8352993 1.1562747 9.7691977 1.8460865 14.714928 2.2967371-3.5022396-5.2437552-6.704738-10.695047-9.4674845-16.367711-2.052833 4.5677793-3.8453645 9.2600804-5.2474435 14.0709739zm50.859382-14.2152612c-2.8002142 5.6746406-5.9494691 11.1792988-9.4359328 16.4586318 4.9871419-.5297122 9.9624519-1.2412659 14.8332469-2.4568367-1.4178549-4.8049638-3.3188454-9.4498281-5.3973141-14.0017951zm-10.8498438 18.5695744c-3.135451 4.6409111-6.5883911 9.0782389-10.4160077 13.1696725 4.2022932 4.1764248 8.87589 8.0227677 14.3126437 10.4657686 2.6325957 1.1246501 5.5708485 2.0338576 8.4479699 1.4191543 1.8792987-.3834484 3.358285-1.8085323 4.2515927-3.4549884 1.4651825-2.6861151 1.9424021-5.7853267 2.1100205-8.8054767.2307219-5.2160837-.5718747-10.4321675-1.9147943-15.4604801-5.509717 1.3736939-11.145641 2.1445437-16.7914248 2.6663498zm-42.1787182 16.9784612c.4752476 2.4588132 1.3093959 5.0342422 3.2281342 6.7518537 1.6564647 1.4665912 4.0287588 1.6721512 6.1308913 1.3736939 3.5022397-.5138999 6.7461497-2.0931537 9.743562-3.9194748 3.6126706-2.2453471 6.9078522-4.9828522 9.8993485-8.0049788-3.7940929-3.982724-7.252949-8.2797176-10.4238957-12.774365-.1400107-.1600995-.2524136-.4249556-.5067993-.3972841-5.5274649-.4091434-11.03521-1.1760401-16.4305521-2.4528836-1.6466048 6.2992265-2.7331668 12.9344645-1.6406889 19.4234387zm20.8438474-16.7748778c2.9362809 4.0400436 6.0815918 7.9377765 9.5305879 11.554841 3.3996966-3.6071818 6.4503524-7.5286332 9.3018381-11.580536-6.2709021.3755422-12.561524.389378-18.832426.025695z" fill="#5e5e5e" />
      <path d="m52.2186529 38.2409674c2.5106173-.5688888 5.2385185-.1224691 7.4172839 1.254321 2.3604939 1.4577778 4.057284 3.948642 4.5195062 6.6883951.4879012 2.7061728-.2192593 5.6-1.9120988 7.7669136-1.7323456 2.2676543-4.4859259 3.7175308-7.3382716 3.84-2.5362963.1422222-5.1061728-.748642-7.0103703-2.425679-1.9140741-1.6592593-3.1506173-4.0770371-3.3560494-6.6034568-.2133333-2.3703704.4622222-4.8079013 1.8824691-6.72 1.3945679-1.9081482 3.4903704-3.2869136 5.7975309-3.8004939zm.211358 1.9792593c-2.1017284.5293827-3.9466667 1.9693827-4.9817284 3.8716049-1.0607407 1.9120988-1.2641975 4.268642-.5609876 6.3387655.6380247 1.9180247 2.0444444 3.5614815 3.8360493 4.4958024 1.9397531 1.0291358 4.3140741 1.1851852 6.3762963.4325926 1.8587655-.665679 3.4409877-2.0582716 4.3456791-3.8123456 1.0172839-1.9417284 1.165432-4.3120988.4069135-6.3664198-.6874074-1.8962963-2.1293827-3.5022222-3.9387654-4.3891358-1.6809877-.8395062-3.6641975-1.0350617-5.4834568-.5708642z" fill="#5e5e5e" />
      <g>
        <path d="m108 89.1666667c0 3.7583333-3.075 6.8333333-6.833333 6.8333333h-27.3333337c-3.7583333 0-6.8333333-3.075-6.8333333-6.8333333v-27.3333334c0-3.7583333 3.075-6.8333333 6.8333333-6.8333333h27.3333337c3.758333 0 6.833333 3.075 6.833333 6.8333333z" fill="#563d7c" fill-rule="evenodd" />
        <path d="m109.5 89.1666667c0 4.5867604-3.746573 8.3333333-8.333333 8.3333333h-27.3333337c-4.5867604 0-8.3333333-3.7465729-8.3333333-8.3333333v-27.3333334c0-4.5867604 3.7465729-8.3333333 8.3333333-8.3333333h27.3333337c4.58676 0 8.333333 3.7465729 8.333333 8.3333333z" stroke="#fff" stroke-width="3" />
      </g>
    </g>
    <path d="m89.1647362 64c2.059202 0 3.5933076.4588251 4.8352638 1.4000015 1.2419562.9411765 2 2.3984348 2 4.2999954 0 1.152461-.2972973 2.104725-.8635779 2.9242528-.5662805.8195278-1.3770913 1.4597839-2.4324324 1.9079632 1.4157014.364946 2.5688546 1.0369732 3.2960103 2.0677856.7271557 1.0372149 1 2.3377766 1 3.9000015 0 .8963585-.1454311 1.7216887-.4671815 2.4963986-.3217503.7811124-.8236808 1.4533813-1.5122265 2.0168067s-1.5637065 1.0116046-2.6383526 1.3445378-2.4021879.6422569-3.8822394.6422569h-10.5v-23zm-.6647362 9.5c.965251 0 1.8552124-.1970788 2.498713-.7476991.6435006-.5506202.965251-1.3317327.965251-2.3561424 0-1.152461-.2895753-1.9655863-.8687259-2.4329732-.5791506-.467387-1.5952381-.9631853-2.5418275-.9631853h-6.5534106v6.5zm-6.5 10.5h7c1.5 0 2.3307593-.766148 3-1.4000015.6756757-.627451 1-1.4475375 1-2.5999985 0-1.1332533-.3178893-1.9853526-1-2.5999985-.6821107-.6146458-2-.9000015-3.4465894-.9000015h-6.5534106z" fill="#fff" />
  </g>
</svg>
