<svg height="96" viewBox="0 0 101 96" width="101" xmlns="http://www.w3.org/2000/svg">
  <g fill="#764abc">
    <path d="m69.888 67.072c3.712-.384 6.528-3.584 6.4-7.424s-3.328-6.912-7.168-6.912h-.256c-3.968.128-7.04 3.456-6.912 7.424.128 1.92.896 3.584 2.048 4.736-4.352 8.576-11.008 14.848-20.992 20.096-6.784 3.584-13.824 4.864-20.864 3.968-5.76-.768-10.24-3.328-13.056-7.552-4.096-6.272-4.48-13.056-1.024-19.84 2.432-4.864 6.272-8.448 8.704-10.24-.512-1.664-1.28-4.48-1.664-6.528-18.56 13.44-16.64 31.616-11.008 40.192 4.224 6.4 12.8 10.368 22.272 10.368 2.56 0 5.12-.256 7.68-.896 16.384-3.2 28.8-12.928 35.84-27.392z" />
    <path d="m92.416 51.2c-9.728-11.392-24.064-17.664-40.448-17.664h-2.048c-1.152-2.304-3.584-3.84-6.272-3.84h-.256c-3.968.128-7.04 3.456-6.912 7.424.128 3.84 3.328 6.912 7.168 6.912h.256c2.816-.128 5.248-1.92 6.272-4.352h2.304c9.728 0 18.944 2.816 27.264 8.32 6.4 4.224 11.008 9.728 13.568 16.384 2.176 5.376 2.048 10.624-.256 15.104-3.584 6.784-9.6 10.496-17.536 10.496-5.12 0-9.984-1.536-12.544-2.688-1.408 1.28-3.968 3.328-5.76 4.608 5.504 2.56 11.136 3.968 16.512 3.968 12.288 0 21.376-6.784 24.832-13.568 3.712-7.424 3.456-20.224-6.144-31.104z" />
    <path d="m27.392 69.248c.128 3.84 3.328 6.912 7.168 6.912h.256c3.968-.128 7.04-3.456 6.912-7.424-.128-3.84-3.328-6.912-7.168-6.912h-.256c-.256 0-.64 0-.896.128-5.248-8.704-7.424-18.176-6.656-28.416.512-7.68 3.072-14.336 7.552-19.84 3.712-4.736 10.88-7.04 15.744-7.168 13.568-.256 19.328 16.64 19.712 23.424 1.664.384 4.48 1.28 6.4 1.92-1.536-20.736-14.336-31.488-26.624-31.488-11.52 0-22.144 8.32-26.368 20.608-5.888 16.384-2.048 32.128 5.12 44.544-.64.896-1.024 2.304-.896 3.712z" />
  </g>
</svg>
