<svg
  height="96"
  viewBox="0 0 96 96"
  width="96"
  xmlns="http://www.w3.org/2000/svg"
>
  <g fill="#61dafb" transform="translate(0 5)">
    <path
      d="m96 43.0098421c0-6.397345-7.9641256-12.4600595-20.1744802-16.2197299 2.8177741-12.519112 1.5654301-22.47928592-3.952711-25.66811632-1.2719119-.74799725-2.7590705-1.10231174-4.3832042-1.10231174v4.38956283c.9001223 0 1.6241337.17715724 2.2307378.51178759 2.6612312 1.53536278 3.8157359 7.38155184 2.9156136 14.90089264-.2152467 1.850309-.5674684 3.7990387-.9979617 5.7871367-3.8353037-.9448387-8.0228292-1.6731518-12.4256013-2.1455711-2.6416633-3.6415656-5.3811659-6.9485008-8.1402365-9.8420691 6.3791276-5.96429392 12.3668977-9.23186087 16.4370159-9.23186087v-4.38956283c-5.3811659 0-12.4256013 3.8580911-19.5483082 10.5506981-7.1227068-6.65323873-14.1671422-10.47196155-19.5483081-10.47196155v4.38956283c4.0505503 0 10.0578883 3.24788281 16.4370159 9.17280842-2.7395027 2.8935683-5.4790053 6.1808194-8.0815329 9.822385-4.42234.4724193-8.6098654 1.2007324-12.4451691 2.1652552-.4500612-1.9684138-.7827151-3.8777752-1.0175296-5.7084001-.9196902-7.5193408.2152466-13.36552986 2.8569099-14.92057679.5870363-.35431448 1.3501835-.51178759 2.2503058-.51178759v-4.38956283c-1.6437016 0-3.1308602.35431449-4.42234 1.10231174-5.4985732 3.1888304-6.7313494 13.12932017-3.8940074 25.60906387-12.17121889 3.7793545-20.0962087 9.822385-20.0962087 16.2000458 0 6.3973449 7.96412556 12.4600595 20.1744802 16.2197299-2.8177741 12.5191119-1.5654301 22.4792859 3.952711 25.6681163 1.2719119.7479972 2.7590705 1.1023117 4.4027721 1.1023117 5.3811659 0 12.4256013-3.8580911 19.5483082-10.5506981 7.1227069 6.6532387 14.1671423 10.4719615 19.5483082 10.4719615 1.6437016 0 3.1308602-.3543144 4.42234-1.1023117 5.4985732-3.1888304 6.7313494-13.1293202 3.8940073-25.6090639 12.1320832-3.7596704 20.057073-9.8223849 20.057073-16.2000457zm-25.4773746-13.1293202c-.7240115 2.5392538-1.6241338 5.1572442-2.6416633 7.7752346-.8022829-1.5747311-1.6437016-3.1494622-2.5633918-4.7241932-.9001223-1.5747311-1.8589482-3.1100939-2.8177741-4.6060884 2.7786384.4133669 5.4594374.9251545 8.0228292 1.555047zm-8.9620873 20.9636072c-1.5262943 2.6573587-3.0917244 5.1769284-4.7158581 7.5193408-2.9156136.2558938-5.8703628.3936828-8.84468.3936828-2.9547493 0-5.9094986-.137789-8.8055442-.3739987-1.6241337-2.3424124-3.2091317-4.842298-4.735426-7.4799725-1.4871586-2.5786221-2.8373421-5.1966125-4.0701183-7.834287 1.2132084-2.6376745 2.5829597-5.2753491 4.0505504-7.8539712 1.5262943-2.6573586 3.0917244-5.1769283 4.7158581-7.5193408 2.9156136-.2558938 5.8703628-.3936828 8.84468-.3936828 2.9547493 0 5.9094986.137789 8.8055442.3739987 1.6241337 2.3424124 3.2091317 4.842298 4.735426 7.4799725 1.4871586 2.5786221 2.8373421 5.1966125 4.0701183 7.834287-1.2327762 2.6376746-2.5829597 5.2753491-4.0505504 7.8539712zm6.320424-2.558938c1.0566653 2.6376745 1.9567876 5.2753491 2.7003669 7.834287-2.5633918.6298925-5.2637587 1.1613642-8.061965 1.5747311.958826-1.5156786 1.9176519-3.0707256 2.8177742-4.6651408.9001223-1.574731 1.741541-3.1691462 2.5438239-4.7438773zm-19.8418263 21.0029755c-1.8198125-1.8896772-3.639625-3.99588-5.4398696-6.2989242 1.7611089.0787365 3.5613534.137789 5.3811659.137789 1.8393804 0 3.6591928-.0393683 5.4398696-.137789-1.7611089 2.3030442-3.5809213 4.409247-5.3811659 6.2989242zm-14.5584998-11.5939574c-2.7786384-.4133669-5.4594375-.9251545-8.0228292-1.5550469.7240114-2.5392539 1.6241337-5.1572442 2.6416632-7.7752346.802283 1.574731 1.6437016 3.1494621 2.5633918 4.7241932.9196902 1.574731 1.8589482 3.1100938 2.8177742 4.6060883zm14.4606604-40.9626917c1.8198124 1.8896773 3.6396249 3.9958801 5.4398695 6.2989242-1.7611088-.0787365-3.5613534-.1377889-5.3811659-.1377889-1.8393804 0-3.6591928.0393683-5.4398695.1377889 1.7611088-2.3030441 3.5809213-4.4092469 5.3811659-6.2989242zm-14.4802283 11.5939574c-.9588259 1.5156787-1.9176519 3.0707256-2.8177742 4.6651408-.9001223 1.5747311-1.7415409 3.1494621-2.5438239 4.7241932-1.0566653-2.6376745-1.9567876-5.2753491-2.7003669-7.834287 2.5633918-.6102083 5.2637587-1.1416801 8.061965-1.555047zm-17.7089279 24.6445411c-6.92702809-2.9723049-11.40807171-6.8697642-11.40807171-9.9601739s4.48104362-7.0075532 11.40807171-9.960174c1.6828374-.7283131 3.5222177-1.3778897 5.4203017-1.9880979 1.1153689 3.858091 2.5829596 7.8736553 4.4027721 11.9876401-1.8002446 4.0943008-3.2482674 8.0901809-4.3440685 11.9285878-1.9372197-.6102083-3.7766-1.279469-5.4790053-2.0077821zm10.5275174 28.1286336c-2.6612312-1.5353628-3.8157359-7.3815519-2.9156136-14.9008927.2152467-1.850309.5674684-3.7990387.9979617-5.7871366 3.8353037.9448386 8.0228292 1.6731517 12.4256013 2.145571 2.6416633 3.6415656 5.3811659 6.9485008 8.1402365 9.8420692-6.3791276 5.9642939-12.3668977 9.2318608-16.4370159 9.2318608-.8805545-.0196841-1.6241338-.1968414-2.21117-.5314717zm46.415002-14.9993134c.9196902 7.5193408-.2152466 13.3655299-2.8569099 14.9205768-.5870363.3543145-1.3501835.5117876-2.2503058.5117876-4.0505503 0-10.0578883-3.2478828-16.4370159-9.1728084 2.7395027-2.8935683 5.4790053-6.1808194 8.0815329-9.822385 4.42234-.4724193 8.6098654-1.2007324 12.4451691-2.1652552.4500612 1.988098.802283 3.8974594 1.0175296 5.7280842zm7.5336323-13.1293202c-1.6828374.7283131-3.5222177 1.3778897-5.4203017 1.988098-1.1153689-3.8580911-2.5829596-7.8736553-4.4027721-11.9876402 1.8002446-4.0943008 3.2482674-8.0901808 4.3440685-11.9285878 1.9372197.6102083 3.7766001 1.279469 5.4985732 2.0077821 6.9270281 2.9723049 11.4080717 6.8697643 11.4080717 9.960174-.0195679 3.0904097-4.5006115 7.0075532-11.4276396 9.9601739z"
    />
    <circle cx="48" cy="43" r="9" />
  </g>
</svg>
