<svg
  height="96"
  viewBox="0 0 96 96"
  width="96"
  xmlns="http://www.w3.org/2000/svg"
>
  <g fill="#764abc" transform="translate(3 5)">
    <path
      d="m62.2774387 60.8227848c3.3169113-.3417721 5.8331889-3.1898734 5.7188126-6.6075949-.1143762-3.4177215-2.9737825-6.1518988-6.4050701-6.1518988h-.2287525c-3.5456638.1139241-6.2906939 3.0759494-6.1763176 6.607595.1143762 1.7088607.8006338 3.1898734 1.83002 4.2151898-3.8887925 7.6329114-9.8363576 13.2151899-18.7577053 17.886076-6.0619414 3.1898734-12.3526352 4.3291139-18.6433291 3.5316456-5.1469313-.6835443-9.1501002-2.9620253-11.6663777-6.721519-3.66004006-5.5822785-4.00316882-11.6202532-.91501001-17.6582279 2.17314879-4.3291139 5.60443631-7.5189873 7.77758511-9.113924-.457505-1.4810127-1.1437625-3.9873418-1.4868913-5.8101266-16.5845565 11.9620253-14.86891272 28.1392405-9.83635763 35.7721519 3.77441632 5.6962025 11.43762523 9.2278481 19.90146783 9.2278481 2.2875251 0 4.5750501-.2278481 6.8625752-.7974684 14.6401602-2.8481012 25.7346567-11.5063291 32.0253505-24.3797468z"
    />
    <path
      d="m82.4570803 46.172147c-8.7745391-10.1566731-21.7054389-15.7485493-36.48361-15.7485493h-1.8472714c-1.0390901-2.0541586-3.2327249-3.4235977-5.6572686-3.4235977h-.2309089c-3.5790883.1141199-6.3499954 3.0812379-6.234541 6.6189555.1154545 3.4235977 3.001816 6.1624758 6.4654499 6.1624758h.2309089c2.5399982-.1141199 4.733633-1.7117988 5.6572687-3.8800773h2.0781803c8.7745391 0 17.0872603 2.5106383 24.5918003 7.4177949 5.7727231 3.7659575 9.9290837 8.6731142 12.238173 14.6073501 1.9627258 4.7930368 1.8472714 9.4719536-.2309089 13.4661509-3.232725 6.0483559-8.6590847 9.3578337-15.8172613 9.3578337-4.6181785 0-9.005448-1.3694391-11.3145373-2.3965184-1.269999 1.1411992-3.5790883 2.967118-5.1954507 4.1083172 4.9645418 2.2823985 10.0445381 3.5377176 14.8936255 3.5377176 11.0836284 0 19.2808951-6.0483559 22.3981656-12.0967118 3.3481794-6.6189555 3.1172705-18.0309478-5.5418141-27.7311412z"
    />
    <path
      d="m24.3602404 60.8885135c.11454 3.3952703 2.9780413 6.1114865 6.4142428 6.1114865h.2290802c3.5507415-.1131757 6.2997028-3.0557432 6.1851627-6.5641892-.11454-3.3952703-2.9780413-6.1114865-6.4142429-6.1114865h-.2290801c-.2290801 0-.5727002 0-.8017803.1131757-4.6961421-7.6959459-6.643323-16.0709459-5.9560827-25.125.4581602-6.7905405 2.7489612-12.6756757 6.757863-17.5422297 3.3216615-4.18750003 9.7359044-6.22466219 14.0884264-6.33783787 12.1412454-.22635135 17.2955478 14.71283787 17.6391679 20.71114867 1.4890207.339527 4.0089018 1.1317567 5.7270026 1.6976351-1.3744806-18.33445944-12.8284858-27.8412162-23.8243307-27.8412162-10.3086047 0-19.8154289 7.35641892-23.5952506 18.2212838-5.2688424 14.4864865-1.8326409 28.4070946 4.581602 39.3851351-.5727002.7922297-.9163204 2.0371622-.8017803 3.2820946z"
    />
  </g>
</svg>
