<svg height="96" viewBox="0 0 96 96" width="96" xmlns="http://www.w3.org/2000/svg">
  <g fill="none" fill-rule="evenodd" transform="translate(0 5)">
    <g fill-rule="nonzero">
      <path d="m64.4025295.5407809c2.382154-.66222258 5.0833308-.88709495 7.3340194.32579934 2.1507748 1.17394003 3.4303718 3.45630608 4.1472967 5.74044278 1.1691661 3.81928908 1.1761776 7.89355148.8045686 11.84032728-.2944826 2.9888548-.867672 5.945838-1.6126429 8.853243 3.9159176 1.0641598 7.7582146 2.4665135 11.3410863 4.3965205 2.8186193 1.5528588 5.5531007 3.4226637 7.5583871 5.9918749 1.3111487 1.6821161 2.2506885 3.8175183 1.9772404 5.9989574-.2804597 2.3620453-1.6862636 4.4071444-3.3041651 6.0609302-2.4312344 2.4558896-5.4268938 4.2601806-8.5137026 5.749296-2.8484181 1.3492343-5.8212902 2.424018-8.8520071 3.270388 1.1691661 4.4283922 1.8895968 9.0090601 1.7844244 13.6021226-.1016666 3.2367457-.5714365 6.5673357-2.1279874 9.442869-.9868674 1.8379333-2.6258033 3.3978747-4.6731586 3.9042802-2.9010043.7383605-5.9247097-.0796792-8.6136164-1.214665-5.1271526-2.2540356-9.528616-5.8820946-13.4743324-9.8270997-2.3558609 2.4027701-4.9255722 4.5966038-7.696864 6.4982804-3.0377283 2.0468698-6.3489048 3.8122064-9.9563168 4.539943-2.2839931.4426621-4.8203999.393084-6.8362035-.9065721-2.0280737-1.3138213-3.1814639-3.6050406-3.828274-5.880324-.9816087-3.5607744-.9781029-7.3180907-.6222698-10.9709388.3102585-3.0313504.9079881-6.0290585 1.6862636-8.9718765-3.2375559-.8658471-6.4067497-2.0149981-9.4216907-3.4934897-3.12361918-1.561712-6.1455717-3.4687006-8.52947855-6.0697834-1.60212564-1.7671073-2.94482612-3.98573-2.97287208-6.4504729-.0192816-2.2929899 1.1551431-4.4018324 2.62054467-6.076866 2.22264257-2.5160916 5.09384803-4.3469423 8.05795576-5.850223 3.2831305-1.6449325 6.7678414-2.8507442 10.3033857-3.8086651-1.1551431-4.3894379-1.942183-8.9099038-1.9369244-13.464012.0350575-3.2845532.4189366-6.6912811 1.9895105-9.62347519.96408-1.82199741 2.6187918-3.32350743 4.6451127-3.78918802 3.0622685-.72773657 6.2209451.1930007 9.0325529 1.41474824 5.0377561 2.2841367 9.4164321 5.81481002 13.3376083 9.69607177 2.4435045-2.46120157 5.0658021-4.75065021 7.9142202-6.72492341 2.6030159-1.77950185 5.3988479-3.33944327 8.4383291-4.20351979zm1.0394535 1.55462948c-3.0499984.75606695-5.8388189 2.31069643-8.426059 4.07072114-2.7870676 1.91584179-5.3427559 4.15925358-7.7319214 6.55671178 3.3409753 3.5784808 6.3927267 7.4261003 9.1727828 11.4631791.2278734.4391208.7870398.2850744 1.1866948.3665242 4.6223253.4497448 9.2236161 1.1757107 13.7355104 2.3018432 1.1639074-4.5505669 1.9141369-9.2480976 1.7458612-13.9597936-.110431-2.4222473-.4434768-4.88344883-1.4198269-7.11977802-.64681-1.47140899-1.6722406-2.88261593-3.1779582-3.53421462-1.6091371-.68347036-3.4233604-.53473588-5.0850837-.14519318zm-41.001445.72419528c-1.4338499 1.012811-2.2489357 2.67013809-2.7642803 4.3133-.8413789 2.77460637-.9605742 5.71388304-.8326145 8.59295764.2103447 3.7484631.8466375 7.4774491 1.8703152 11.0842603 4.8063769-1.2359127 9.747725-1.859181 14.6645329-2.3956875 2.8974985-4.0884277 5.9843073-8.0546806 9.4427252-11.6809689-2.9658606-2.95698317-6.2139337-5.65545165-9.8160871-7.78908322-2.3278149-1.34746359-4.8168941-2.51077972-7.4847664-2.94990057-1.7108037-.26913859-3.607412-.19477135-5.079825.82512225zm15.2166878 21.44609594c5.5723823-.3665243 11.1675519-.3860014 16.7399342.0123945-2.5802286-3.5855634-5.3059457-7.0737412-8.3471798-10.2750738-3.0482456 3.2013326-5.8177844 6.6647213-8.3927544 10.2626793zm-.8764364 1.8361626c-.1840516.0407249-.4469825-.005312-.5416376.2053952-3.5846247 5.3066339-6.7888759 10.884177-9.5163459 16.6901338 2.0087921 4.4018324 4.4049691 8.6159761 6.9326115 12.7327341.9447984 1.3899592 1.76339 2.8790746 2.7993377 4.1999785 6.1771234.4373502 12.3893042.4355796 18.5699333.0177065.303247-.0442662.7064077.0283304.8589076-.3169461 3.5267799-5.326111 6.6819507-10.9036541 9.4479838-16.6706566-2.8045963-5.8289753-6.057928-11.4330781-9.651317-16.799914-6.2840486-.5471304-12.611919-.5152588-18.8994734-.0584314zm-15.62686 2.4045408c1.2305166 4.2513273 2.8063492 8.3964157 4.6030437 12.4352651 2.4487631-5.0481191 5.2481008-9.9191734 8.3366625-14.5936858-4.35063.4515154-8.6854842 1.1208206-12.9397062 2.1584207zm36.7665047-2.15665c3.0605157 4.6886775 5.8826407 9.5402547 8.3664613 14.5671261 1.7879302-4.0176017 3.3883029-8.1272771 4.6170667-12.355586-4.2647393-1.0730131-8.6171222-1.7423182-12.983528-2.2115401zm-50.80000343 7.5606695c-2.10344723 1.274867-4.12626231 2.7710651-5.66002592 4.7258612-.99037307 1.2784083-1.7774129 2.8383497-1.70379225 4.50453.09816087 1.8450159 1.11482703 3.4881778 2.28749886 4.8462652 1.92815996 2.1902924 4.37517023 3.8405369 6.90982414 5.230496 3.2989064 1.7759606 6.8274391 3.0897818 10.436604 4.0618679 1.4075568-4.897614 3.2866363-9.639411 5.369049-14.280281-2.0876713-4.5523375-3.9124118-9.2357031-5.3059456-14.053638-4.2840208 1.1509216-8.5031854 2.686074-12.33321223 4.9648987zm65.47855933-4.9082379c-1.3847695 4.7860632-3.2252858 9.4269332-5.3164629 13.9403165 2.161292 4.570044 4.0824405 9.2675748 5.5197961 14.1226932 3.4128431-.9561502 6.7555713-2.1956042 9.9089893-3.8299129 2.6363205-1.3935004 5.1955147-3.0472862 7.2130711-5.2818448 1.2235052-1.3793352 2.2822403-3.0773873 2.3225563-4.9826052.0087644-1.7741899-.936034-3.3801681-2.0473553-4.6869068-1.8633036-2.1513381-4.2647392-3.7449218-6.7362897-5.0923854-3.4356305-1.8379333-7.1166631-3.1676904-10.8643049-4.1893546zm-51.5029054 28.7057552c4.2980438 1.0358294 8.6837313 1.6537858 13.079936 2.0574937-3.1131019-4.6975308-5.9597671-9.5809796-8.4155418-14.6627411-1.8247404 4.0919689-3.4181017 8.2954887-4.6643942 12.6052474zm45.2083395-12.7345048c-2.4890792 5.0835322-5.2884169 10.0147885-8.3874958 14.744191 4.4330151-.4745339 8.8555128-1.1119674 13.1851084-2.2009163-1.2603155-4.3044467-2.9500847-8.4654709-4.7976126-12.5432747zm-9.6443055 16.6352437c-2.7870676 4.1574829-5.8563477 8.132589-9.2586735 11.7978316 3.7353717 3.7413805 7.8896799 7.1870627 12.7223499 9.3755844 2.3400851 1.0074991 4.9518654 1.8219974 7.5093066 1.2713257 1.6704877-.3435058 2.9851422-1.6201435 3.7791936-3.0950938 1.3023844-2.4063114 1.7265796-5.1826884 1.8755737-7.8882395.2050861-4.6727417-.5083331-9.3454833-1.7020394-13.8500134-4.8975262 1.2306008-9.9072364 1.9211537-14.9257109 2.388605zm-37.4921939 15.2098715c.4224423 2.2026869 1.1639074 4.509842 2.8694525 6.0485356 1.4724131 1.3138213 3.581119 1.4979688 5.4496812 1.2306008 3.1131019-.4603686 5.9965775-1.8751169 8.660944-3.5111962 3.2112628-2.0114568 6.140313-4.4638051 8.7994209-7.1711268-3.3725271-3.567857-6.4470658-7.417247-9.265685-11.443702-.124454-.1434225-.2243677-.3806894-.4504883-.3559003-4.9133022-.3665243-9.8090756-1.053536-14.6049353-2.197375-1.4636487 5.6430572-2.4294815 11.5871245-1.45839 17.4001639zm18.5278643-15.0274947c2.6100274 3.6192057 5.4058594 7.1109248 8.4716337 10.3512117 3.0219525-3.2314337 5.7336466-6.7444005 8.2683005-10.3742302-5.5741352.3364233-11.1657991.3488178-16.7399342.0230185z" fill="#5e5e5e" />
      <path d="m45.8610248 34.2141933c2.2316598-.505679 4.6564609-.1088615 6.5931413 1.114952 2.0982167 1.2958024 3.6064746 3.509904 4.0173388 5.94524.43369 2.405487-.1948971 4.9777778-1.6996434 6.9039232-1.5398628 2.0156927-3.9874897 3.3044719-6.522908 3.4133333-2.2544856.1264198-4.5388203-.6654595-6.2314404-2.1561591-1.7013992-1.4748971-2.8005487-3.6240329-2.983155-5.8697393-.1896296-2.1069959.4108642-4.27369 1.6733059-5.9733334 1.2396159-1.6961317 3.1025515-2.9217009 5.1533608-3.3782167zm.1878738 1.7593415c-1.868203.4705625-3.5081482 1.7505625-4.428203 3.4414267-.9428807 1.6996433-1.1237312 3.7943484-.4986557 5.6344581.567133 1.7049109 1.8172839 3.1657613 3.4098216 3.9962689 1.724225.9147874 3.8347326 1.0534979 5.667819.3845267 1.6522359-.5917146 3.0586557-1.8295747 3.8628258-3.3887517.9042524-1.7259808 1.0359396-3.8329767.3617009-5.6590398-.6110288-1.6855967-1.8927846-3.1130864-3.5011248-3.901454-1.4942112-.7462277-3.2570645-.9200549-4.8741838-.5074349z" fill="#5e5e5e" />
      <g>
        <path d="m96 80c0 3.3-2.7 6-6 6h-24c-3.3 0-6-2.7-6-6v-24c0-3.3 2.7-6 6-6h24c3.3 0 6 2.7 6 6z" fill="#563d7c" fill-rule="evenodd" />
        <path d="m97.5 80c0 4.1284271-3.3715729 7.5-7.5 7.5h-24c-4.1284271 0-7.5-3.3715729-7.5-7.5v-24c0-4.1284271 3.3715729-7.5 7.5-7.5h24c4.1284271 0 7.5 3.3715729 7.5 7.5z" stroke="#fff" stroke-width="3" />
      </g>
    </g>
    <path d="m79.5771185 57c1.950823 0 3.4041861.4388761 4.5807762 1.3391319 1.1765902.9002557 1.8947369 2.294155 1.8947369 4.1130391 0 1.102354-.2816501 2.0132152-.8181264 2.7971113-.5364763.7838962-1.3046129 1.3963151-2.3044097 1.8250083 1.3411908.3490787 2.4336517.9918875 3.1225361 1.9778819.6888844.9921185.9473684 2.2361341.9473684 3.7304362 0 .8573864-.1377769 1.6468326-.442593 2.3878595-.3048161.747151-.7803292 1.3901908-1.4326356 1.9291195-.6523065.5389286-1.4814062.9676218-2.499492 1.2860796-1.0180857.3184578-2.2757569.6143327-3.677911.6143327h-9.9473684v-22zm-.5791506 9c.9144483 0 1.7069701-.1015537 2.3166023-.6282339s.9144483-1.2738313.9144483-2.2537015c0-1.102354-.2743345-1.8801259-.8230035-2.3271917-.5486689-.4470658-1.5112782-.7908729-2.4080471-.7908729h-5.9979679v6zm-5.9979679 10h6.5c1.4210526 0 2.1291404-.6024024 2.7631579-1.2086971.6401138-.6001705.9473684-1.3846011.9473684-2.4869551 0-1.0839814-.3011583-1.8990329-.9473684-2.486955-.6462101-.5879222-1.8927047-.8173928-3.2631579-.8173928h-6z" fill="#fff" />
  </g>
</svg>
